{
    "asset": {
        "version": "2.0",
        "generator": "Open Asset Import Library (assimp v5.0.5eb040c7)"
    },
    "accessors": [
        {
            "bufferView": 0,
            "byteOffset": 0,
            "componentType": 5126,
            "count": 368,
            "type": "VEC3",
            "max": [
                60.0,
                60.0,
                60.0
            ],
            "min": [
                -0.0,
                0.0,
                -0.0
            ]
        },
        {
            "bufferView": 1,
            "byteOffset": 0,
            "componentType": 5126,
            "count": 368,
            "type": "VEC3",
            "max": [
                1.0,
                1.0,
                1.0
            ],
            "min": [
                -1.0,
                -1.0,
                -1.0
            ]
        },
        {
            "bufferView": 2,
            "byteOffset": 0,
            "componentType": 5125,
            "count": 816,
            "type": "SCALAR",
            "max": [
                367
            ],
            "min": [
                0
            ]
        }
    ],
    "buffers": [
        {
            "byteLength": 12096,
            "uri": "result.bin"
        }
    ],
    "bufferViews": [
        {
            "buffer": 0,
            "byteOffset": 0,
            "byteLength": 4416,
            "target": 34962
        },
        {
            "buffer": 0,
            "byteOffset": 4416,
            "byteLength": 4416,
            "target": 34962
        },
        {
            "buffer": 0,
            "byteOffset": 8832,
            "byteLength": 3264,
            "target": 34963
        }
    ],
    "materials": [
        {
            "name": "DefaultMaterial",
            "pbrMetallicRoughness": {
                "baseColorFactor": [
                    0.6000000238418579,
                    0.6000000238418579,
                    0.6000000238418579,
                    1.0
                ],
                "metallicFactor": 0.0
            }
        }
    ],
    "meshes": [
        {
            "name": "defaultobject",
            "primitives": [
                {
                    "mode": 4,
                    "material": 0,
                    "indices": 2,
                    "attributes": {
                        "POSITION": 0,
                        "NORMAL": 1
                    }
                }
            ]
        }
    ],
    "nodes": [
        {
            "name": "input.obj",
            "children": [
                1
            ]
        },
        {
            "name": "defaultobject",
            "mesh": 0
        }
    ],
    "scenes": [
        {
            "nodes": [
                0
            ]
        }
    ],
    "scene": 0
}